<svg width="214" height="41" viewBox="0 0 214 41" fill="none" xmlns="http://www.w3.org/2000/svg">
<g filter="url(#filter0_d_135_1035)">
<path d="M12.016 1.664C14.3627 1.664 16.4213 2.12267 18.192 3.04C19.984 3.95733 21.36 5.26933 22.32 6.976C23.3013 8.66133 23.792 10.624 23.792 12.864C23.792 15.104 23.3013 17.0667 22.32 18.752C21.36 20.416 19.984 21.7067 18.192 22.624C16.4213 23.5413 14.3627 24 12.016 24H4.208V1.664H12.016ZM11.856 20.192C14.2027 20.192 16.016 19.552 17.296 18.272C18.576 16.992 19.216 15.1893 19.216 12.864C19.216 10.5387 18.576 8.72533 17.296 7.424C16.016 6.10133 14.2027 5.44 11.856 5.44H8.688V20.192H11.856ZM35.0175 24.288C33.3108 24.288 31.7748 23.9147 30.4095 23.168C29.0442 22.4 27.9668 21.3227 27.1775 19.936C26.4095 18.5493 26.0255 16.9493 26.0255 15.136C26.0255 13.3227 26.4202 11.7227 27.2095 10.336C28.0202 8.94933 29.1188 7.88267 30.5055 7.136C31.8922 6.368 33.4388 5.984 35.1455 5.984C36.8522 5.984 38.3988 6.368 39.7855 7.136C41.1722 7.88267 42.2602 8.94933 43.0495 10.336C43.8602 11.7227 44.2655 13.3227 44.2655 15.136C44.2655 16.9493 43.8495 18.5493 43.0175 19.936C42.2068 21.3227 41.0975 22.4 39.6895 23.168C38.3028 23.9147 36.7455 24.288 35.0175 24.288ZM35.0175 20.384C35.8282 20.384 36.5855 20.192 37.2895 19.808C38.0148 19.4027 38.5908 18.8053 39.0175 18.016C39.4442 17.2267 39.6575 16.2667 39.6575 15.136C39.6575 13.4507 39.2095 12.16 38.3135 11.264C37.4388 10.3467 36.3615 9.888 35.0815 9.888C33.8015 9.888 32.7242 10.3467 31.8495 11.264C30.9962 12.16 30.5695 13.4507 30.5695 15.136C30.5695 16.8213 30.9855 18.1227 31.8175 19.04C32.6708 19.936 33.7375 20.384 35.0175 20.384ZM54.4958 5.984C55.8184 5.984 56.9811 6.25067 57.9838 6.784C58.9864 7.296 59.7758 7.968 60.3518 8.8V6.272H64.8638V24.128C64.8638 25.7707 64.5331 27.232 63.8718 28.512C63.2104 29.8133 62.2184 30.8373 60.8958 31.584C59.5731 32.352 57.9731 32.736 56.0958 32.736C53.5784 32.736 51.5091 32.1493 49.8878 30.976C48.2878 29.8027 47.3811 28.2027 47.1678 26.176H51.6158C51.8504 26.9867 52.3518 27.6267 53.1198 28.096C53.9091 28.5867 54.8584 28.832 55.9678 28.832C57.2691 28.832 58.3251 28.4373 59.1358 27.648C59.9464 26.88 60.3518 25.7067 60.3518 24.128V21.376C59.7758 22.208 58.9758 22.9013 57.9518 23.456C56.9491 24.0107 55.7971 24.288 54.4958 24.288C53.0024 24.288 51.6371 23.904 50.3998 23.136C49.1624 22.368 48.1811 21.2907 47.4557 19.904C46.7517 18.496 46.3997 16.8853 46.3997 15.072C46.3997 13.28 46.7517 11.6907 47.4557 10.304C48.1811 8.91733 49.1518 7.85067 50.3678 7.104C51.6051 6.35733 52.9811 5.984 54.4958 5.984ZM60.3518 15.136C60.3518 14.048 60.1384 13.12 59.7118 12.352C59.2851 11.5627 58.7091 10.9653 57.9838 10.56C57.2584 10.1333 56.4798 9.92 55.6478 9.92C54.8158 9.92 54.0478 10.1227 53.3438 10.528C52.6398 10.9333 52.0638 11.5307 51.6158 12.32C51.1891 13.088 50.9758 14.0053 50.9758 15.072C50.9758 16.1387 51.1891 17.0773 51.6158 17.888C52.0638 18.6773 52.6398 19.2853 53.3438 19.712C54.0691 20.1387 54.8371 20.352 55.6478 20.352C56.4798 20.352 57.2584 20.1493 57.9838 19.744C58.7091 19.3173 59.2851 18.72 59.7118 17.952C60.1384 17.1627 60.3518 16.224 60.3518 15.136ZM76.1833 5.984C77.5059 5.984 78.6686 6.25067 79.6713 6.784C80.6739 7.296 81.4633 7.968 82.0393 8.8V6.272H86.5513V24.128C86.5513 25.7707 86.2206 27.232 85.5593 28.512C84.8979 29.8133 83.9059 30.8373 82.5833 31.584C81.2606 32.352 79.6606 32.736 77.7833 32.736C75.2659 32.736 73.1966 32.1493 71.5753 30.976C69.9753 29.8027 69.0686 28.2027 68.8553 26.176H73.3033C73.5379 26.9867 74.0393 27.6267 74.8073 28.096C75.5966 28.5867 76.5459 28.832 77.6553 28.832C78.9566 28.832 80.0126 28.4373 80.8233 27.648C81.6339 26.88 82.0393 25.7067 82.0393 24.128V21.376C81.4633 22.208 80.6633 22.9013 79.6393 23.456C78.6366 24.0107 77.4846 24.288 76.1833 24.288C74.6899 24.288 73.3246 23.904 72.0873 23.136C70.8499 22.368 69.8686 21.2907 69.1432 19.904C68.4392 18.496 68.0872 16.8853 68.0872 15.072C68.0872 13.28 68.4392 11.6907 69.1432 10.304C69.8686 8.91733 70.8393 7.85067 72.0553 7.104C73.2926 6.35733 74.6686 5.984 76.1833 5.984ZM82.0393 15.136C82.0393 14.048 81.8259 13.12 81.3993 12.352C80.9726 11.5627 80.3966 10.9653 79.6713 10.56C78.9459 10.1333 78.1673 9.92 77.3353 9.92C76.5033 9.92 75.7353 10.1227 75.0312 10.528C74.3273 10.9333 73.7513 11.5307 73.3033 12.32C72.8766 13.088 72.6633 14.0053 72.6633 15.072C72.6633 16.1387 72.8766 17.0773 73.3033 17.888C73.7513 18.6773 74.3273 19.2853 75.0312 19.712C75.7566 20.1387 76.5246 20.352 77.3353 20.352C78.1673 20.352 78.9459 20.1493 79.6713 19.744C80.3966 19.3173 80.9726 18.72 81.3993 17.952C81.8259 17.1627 82.0393 16.224 82.0393 15.136ZM107.887 6.272L96.9108 32.384H92.1428L95.9828 23.552L88.8788 6.272H93.9028L98.4788 18.656L103.119 6.272H107.887ZM134.654 1.664V24H130.174V9.472L124.19 24H120.798L114.782 9.472V24H110.302V1.664H115.39L122.494 18.272L129.598 1.664H134.654ZM137.931 15.072C137.931 13.28 138.283 11.6907 138.987 10.304C139.712 8.91733 140.683 7.85067 141.899 7.104C143.136 6.35733 144.512 5.984 146.027 5.984C147.35 5.984 148.502 6.25067 149.483 6.784C150.486 7.31733 151.286 7.98933 151.883 8.8V6.272H156.395V24H151.883V21.408C151.307 22.24 150.507 22.9333 149.483 23.488C148.48 24.0213 147.318 24.288 145.995 24.288C144.502 24.288 143.136 23.904 141.899 23.136C140.683 22.368 139.712 21.2907 138.987 19.904C138.283 18.496 137.931 16.8853 137.931 15.072ZM151.883 15.136C151.883 14.048 151.67 13.12 151.243 12.352C150.816 11.5627 150.24 10.9653 149.515 10.56C148.79 10.1333 148.011 9.92 147.179 9.92C146.347 9.92 145.579 10.1227 144.875 10.528C144.171 10.9333 143.595 11.5307 143.147 12.32C142.72 13.088 142.507 14.0053 142.507 15.072C142.507 16.1387 142.72 17.0773 143.147 17.888C143.595 18.6773 144.171 19.2853 144.875 19.712C145.6 20.1387 146.368 20.352 147.179 20.352C148.011 20.352 148.79 20.1493 149.515 19.744C150.24 19.3173 150.816 18.72 151.243 17.952C151.67 17.1627 151.883 16.224 151.883 15.136ZM165.987 9.952V18.528C165.987 19.1253 166.125 19.5627 166.403 19.84C166.701 20.096 167.192 20.224 167.875 20.224H169.955V24H167.139C163.363 24 161.475 22.1653 161.475 18.496V9.952H159.363V6.272H161.475V1.888H165.987V6.272H169.955V9.952H165.987ZM172.025 15.136C172.025 13.3013 172.398 11.7013 173.145 10.336C173.891 8.94933 174.926 7.88267 176.249 7.136C177.571 6.368 179.086 5.984 180.793 5.984C182.99 5.984 184.803 6.53867 186.233 7.648C187.683 8.736 188.654 10.272 189.145 12.256H184.313C184.057 11.488 183.619 10.8907 183.001 10.464C182.403 10.016 181.657 9.792 180.761 9.792C179.481 9.792 178.467 10.2613 177.721 11.2C176.974 12.1173 176.601 13.4293 176.601 15.136C176.601 16.8213 176.974 18.1333 177.721 19.072C178.467 19.9893 179.481 20.448 180.761 20.448C182.574 20.448 183.758 19.6373 184.313 18.016H189.145C188.654 19.936 187.683 21.4613 186.233 22.592C184.782 23.7227 182.969 24.288 180.793 24.288C179.086 24.288 177.571 23.9147 176.249 23.168C174.926 22.4 173.891 21.3333 173.145 19.968C172.398 18.5813 172.025 16.9707 172.025 15.136ZM202.411 6.016C203.755 6.016 204.949 6.31467 205.995 6.912C207.04 7.488 207.851 8.352 208.427 9.504C209.024 10.6347 209.323 12 209.323 13.6V24H204.843V14.208C204.843 12.8 204.491 11.7227 203.787 10.976C203.083 10.208 202.123 9.824 200.907 9.824C199.669 9.824 198.688 10.208 197.963 10.976C197.259 11.7227 196.907 12.8 196.907 14.208V24H192.427V0.32H196.907V8.48C197.483 7.712 198.251 7.11467 199.211 6.688C200.171 6.24 201.237 6.016 202.411 6.016Z" fill="white"/>
</g>
<defs>
<filter id="filter0_d_135_1035" x="0.208008" y="0.319824" width="213.115" height="40.416" filterUnits="userSpaceOnUse" color-interpolation-filters="sRGB">
<feFlood flood-opacity="0" result="BackgroundImageFix"/>
<feColorMatrix in="SourceAlpha" type="matrix" values="0 0 0 0 0 0 0 0 0 0 0 0 0 0 0 0 0 0 127 0" result="hardAlpha"/>
<feOffset dy="4"/>
<feGaussianBlur stdDeviation="2"/>
<feComposite in2="hardAlpha" operator="out"/>
<feColorMatrix type="matrix" values="0 0 0 0 0 0 0 0 0 0 0 0 0 0 0 0 0 0 0.25 0"/>
<feBlend mode="normal" in2="BackgroundImageFix" result="effect1_dropShadow_135_1035"/>
<feBlend mode="normal" in="SourceGraphic" in2="effect1_dropShadow_135_1035" result="shape"/>
</filter>
</defs>
</svg>
